<?xml version="1.0" standalone="no"?>
<!DOCTYPE svg PUBLIC "-//W3C//DTD SVG 20010904//EN"
 "http://www.w3.org/TR/2001/REC-SVG-20010904/DTD/svg10.dtd">
<svg version="1.0" xmlns="http://www.w3.org/2000/svg"
 width="512.000000pt" height="512.000000pt" viewBox="0 0 512.000000 512.000000"
 preserveAspectRatio="xMidYMid meet">

<g transform="translate(0.000000,512.000000) scale(0.100000,-0.100000)"
fill="#000000" stroke="none">
<path d="M2270 4342 c-66 -33 -2247 -1712 -2258 -1738 -17 -35 -15 -64 6 -96
20 -32 2211 -1714 2258 -1734 52 -22 115 5 133 58 7 20 11 186 11 481 l0 449
138 -7 c585 -27 1027 -109 1442 -267 387 -147 756 -409 907 -645 43 -68 86
-90 140 -72 55 18 73 58 73 161 0 186 -32 470 -76 666 -129 585 -442 1046
-907 1334 -191 119 -451 226 -697 288 -271 68 -489 94 -787 95 l-233 0 0 473
c0 525 0 525 -63 555 -43 21 -45 21 -87 -1z"/>
</g>
</svg>
